<svg width="1200" height="630" viewBox="0 0 1200 630" fill="none" xmlns="http://www.w3.org/2000/svg">
  <defs>
    <linearGradient id="bg" x1="90" y1="40" x2="1110" y2="590" gradientUnits="userSpaceOnUse">
      <stop offset="0" stop-color="#08162F"/>
      <stop offset="0.55" stop-color="#0D2550"/>
      <stop offset="1" stop-color="#123A6C"/>
    </linearGradient>
    <radialGradient id="glowA" cx="0" cy="0" r="1" gradientUnits="userSpaceOnUse" gradientTransform="translate(215 120) rotate(90) scale(260 360)">
      <stop stop-color="#4AE4FF" stop-opacity="0.38"/>
      <stop offset="1" stop-color="#4AE4FF" stop-opacity="0"/>
    </radialGradient>
    <radialGradient id="glowB" cx="0" cy="0" r="1" gradientUnits="userSpaceOnUse" gradientTransform="translate(980 560) rotate(-90) scale(220 300)">
      <stop stop-color="#FFDF68" stop-opacity="0.32"/>
      <stop offset="1" stop-color="#FFDF68" stop-opacity="0"/>
    </radialGradient>
    <filter id="shadow" x="0" y="0" width="1200" height="630" filterUnits="userSpaceOnUse" color-interpolation-filters="sRGB">
      <feDropShadow dx="0" dy="24" stdDeviation="28" flood-color="#020612" flood-opacity="0.42"/>
    </filter>
  </defs>

  <rect width="1200" height="630" rx="36" fill="url(#bg)"/>
  <rect width="1200" height="630" rx="36" fill="url(#glowA)"/>
  <rect width="1200" height="630" rx="36" fill="url(#glowB)"/>

  <g opacity="0.18">
    <circle cx="1012" cy="154" r="108" stroke="#F3F8FF"/>
    <circle cx="1012" cy="154" r="146" stroke="#F3F8FF"/>
    <path d="M852 485C930 430 1016 418 1136 432" stroke="#F3F8FF" stroke-width="2" stroke-linecap="round" stroke-dasharray="8 12"/>
  </g>

  <g filter="url(#shadow)" transform="translate(76 85)">
    <circle cx="210" cy="230" r="205" fill="#091126" stroke="#F5F9FF" stroke-opacity="0.16" stroke-width="10"/>
    <path d="M210 230L210 25A205 205 0 0 1 354.96 85.04Z" fill="#4AE4FF"/>
    <path d="M210 230L354.96 85.04A205 205 0 0 1 415 230Z" fill="#FFDF68"/>
    <path d="M210 230L415 230A205 205 0 0 1 354.96 374.96Z" fill="#FF6F91"/>
    <path d="M210 230L354.96 374.96A205 205 0 0 1 210 435Z" fill="#8E7CFF"/>
    <path d="M210 230L210 435A205 205 0 0 1 65.04 374.96Z" fill="#00C2A8"/>
    <path d="M210 230L65.04 374.96A205 205 0 0 1 5 230Z" fill="#5EE0B2"/>
    <path d="M210 230L5 230A205 205 0 0 1 65.04 85.04Z" fill="#36A2FF"/>
    <path d="M210 230L65.04 85.04A205 205 0 0 1 210 25Z" fill="#1B78D3"/>
    <circle cx="210" cy="230" r="74" fill="#F3F8FF" fill-opacity="0.12" stroke="#F3F8FF" stroke-opacity="0.32" stroke-width="4"/>
    <circle cx="210" cy="230" r="34" fill="#F3F8FF"/>
    <path d="M210 4L236 50H184L210 4Z" fill="#F3F8FF"/>
  </g>

  <g transform="translate(505 102)">
    <rect x="0" y="0" width="182" height="38" rx="19" fill="#F3F8FF" fill-opacity="0.1" stroke="#F3F8FF" stroke-opacity="0.14"/>
    <text x="24" y="25" fill="#FFDF68" font-family="Outfit, 'Segoe UI', sans-serif" font-size="17" font-weight="800" letter-spacing="0.14em">FREE RANDOM PICKER</text>

    <text x="0" y="112" fill="#F3F8FF" font-family="Outfit, 'Segoe UI', sans-serif" font-size="70" font-weight="800">Spin the Wheel</text>
    <text x="0" y="168" fill="#B5C4E4" font-family="'Segoe UI', Arial, sans-serif" font-size="26" font-weight="600">Fair spins for classrooms, raffles, giveaways, and teams.</text>

    <g transform="translate(0 222)">
      <rect x="0" y="0" width="166" height="92" rx="24" fill="#F3F8FF" fill-opacity="0.07" stroke="#F3F8FF" stroke-opacity="0.12"/>
      <text x="24" y="34" fill="#4AE4FF" font-family="Outfit, 'Segoe UI', sans-serif" font-size="18" font-weight="800">PRIVATE</text>
      <text x="24" y="60" fill="#F3F8FF" font-family="'Segoe UI', Arial, sans-serif" font-size="18" font-weight="600">Local-first</text>
      <text x="24" y="82" fill="#F3F8FF" font-family="'Segoe UI', Arial, sans-serif" font-size="18" font-weight="600">storage</text>

      <rect x="186" y="0" width="196" height="92" rx="24" fill="#F3F8FF" fill-opacity="0.07" stroke="#F3F8FF" stroke-opacity="0.12"/>
      <text x="210" y="34" fill="#FFDF68" font-family="Outfit, 'Segoe UI', sans-serif" font-size="18" font-weight="800">TRUSTED</text>
      <text x="210" y="60" fill="#F3F8FF" font-family="'Segoe UI', Arial, sans-serif" font-size="18" font-weight="600">Crypto-random</text>
      <text x="210" y="82" fill="#F3F8FF" font-family="'Segoe UI', Arial, sans-serif" font-size="18" font-weight="600">results</text>

      <rect x="402" y="0" width="180" height="92" rx="24" fill="#F3F8FF" fill-opacity="0.07" stroke="#F3F8FF" stroke-opacity="0.12"/>
      <text x="426" y="34" fill="#5EE0B2" font-family="Outfit, 'Segoe UI', sans-serif" font-size="18" font-weight="800">FAST</text>
      <text x="426" y="60" fill="#F3F8FF" font-family="'Segoe UI', Arial, sans-serif" font-size="18" font-weight="600">Offline and</text>
      <text x="426" y="82" fill="#F3F8FF" font-family="'Segoe UI', Arial, sans-serif" font-size="18" font-weight="600">shareable</text>
    </g>

    <text x="0" y="390" fill="#B5C4E4" font-family="'Segoe UI', Arial, sans-serif" font-size="22" font-weight="600">Weighted entries • Templates • Winner history • Multi-language UI</text>
    <text x="0" y="448" fill="#F3F8FF" font-family="Outfit, 'Segoe UI', sans-serif" font-size="30" font-weight="700">spin.alsatian.co</text>
  </g>
</svg>